<svg width="20" height="20" viewBox="0 0 20 20" fill="none" xmlns="http://www.w3.org/2000/svg">
<path d="M16.1667 7.5C15.5833 4.66667 13.0833 2.5 10 2.5C8.75 2.5 7.58333 2.83333 6.66667 3.5L7.91667 4.75C8.5 4.33333 9.25 4.16667 10 4.16667C12.5 4.16667 14.5833 6.25 14.5833 8.75V9.16667H15.8333C17.25 9.16667 18.3333 10.25 18.3333 11.6667C18.3333 12.5833 17.8333 13.4167 17 13.8333L18.25 15.0833C19.3333 14.3333 20 13.0833 20 11.6667C20 9.5 18.25 7.66667 16.1667 7.5ZM2.5 3.58333L4.83333 5.83333C2.16667 6 0 8.16667 0 10.8333C0 13.5833 2.25 15.8333 5 15.8333H14.75L16.4167 17.5L17.5 16.4167L3.58333 2.5L2.5 3.58333ZM6.41667 7.5L13.0833 14.1667H5C3.16667 14.1667 1.66667 12.6667 1.66667 10.8333C1.66667 9 3.16667 7.5 5 7.5H6.41667Z" fill="#673499"/>
</svg>
