<?xml version="1.0" encoding="utf-8"?>
<svg width="354" height="50" viewBox="0 0 293 50" fill="none" xmlns="http://www.w3.org/2000/svg">
  <path d="M0 19.1367C3.62054 19.1367 4.12986 17.1297 4.12986 15.3298C4.12986 13.8899 3.9263 12.4491 3.7219 11.0091C3.51834 9.56833 3.31394 8.17908 3.31394 6.73914C3.31394 2.00608 6.37405 -3.70082e-05 10.7083 -3.70082e-05H11.7797V2.82999H10.8616C7.85259 2.82999 6.83311 4.47528 6.83311 7.25377C6.83311 8.43598 6.98558 9.67142 7.18997 10.906C7.39353 12.1913 7.54683 13.4268 7.54683 14.8152C7.59793 18.1083 6.17049 19.7544 3.8752 20.3713V20.4744C6.17049 21.0397 7.59793 22.7881 7.54683 26.0804C7.54683 27.4696 7.39353 28.7566 7.18997 29.9912C6.98558 31.2774 6.83311 32.4596 6.83311 33.695C6.83311 36.5757 8.00505 38.1695 10.8616 38.1695H11.7797V40.9995H10.7083C6.47542 40.9995 3.31394 39.1472 3.31394 33.9519C3.31394 32.5627 3.51834 31.1219 3.7219 29.7343C3.9263 28.3442 4.12986 26.9558 4.12986 25.5657C4.12986 23.9728 3.62054 21.7597 0 21.7597L0 19.1367Z" fill="#FFA300"/>
  <path d="M83.5794 21.8633C79.9589 21.8633 79.4479 23.8694 79.4479 25.6693C79.4479 27.1101 79.6531 28.5509 79.8567 29.9908C80.0611 31.4308 80.2646 32.82 80.2646 34.2608C80.2646 38.993 77.2053 41 72.8702 41H71.7988V38.17H72.7178C75.726 38.17 76.7463 36.5238 76.7463 33.7462C76.7463 32.5631 76.593 31.3285 76.3894 30.0939C76.185 28.8078 76.0326 27.5723 76.0326 26.184C75.9815 22.8917 77.4089 21.2464 79.7042 20.6287V20.5256C77.4089 19.9594 75.9815 18.2119 76.0326 14.9188C76.0326 13.5295 76.185 12.2434 76.3894 11.0088C76.593 9.72261 76.7463 8.53956 76.7463 7.30496C76.7463 4.42423 75.5727 2.82964 72.7178 2.82964H71.7988V0.000457057H72.8702C77.1031 0.000457057 80.2646 1.85193 80.2646 7.04807C80.2646 8.43562 80.0611 9.87641 79.8567 11.2657C79.6531 12.6549 79.4479 14.0433 79.4479 15.4325C79.4479 17.0263 79.9589 19.2403 83.5794 19.2403V21.8633Z" fill="#FFA300"/>
  <path d="M66.2429 16.3357C66.2429 15.2051 66.3175 15.1273 66.3175 15.1273L62.738 12.8643C62.428 12.5136 61.8274 12.7207 61.8274 12.7207H59.0613L60.379 14.7606V23.7062H38.1163H21.8449V14.7606L24.5146 12.7207H21.8323C21.8323 12.7207 21.0976 12.7714 20.7885 13.1204L16.6251 15.1349C16.6251 15.1349 15.981 15.2051 15.981 16.3357V29.8758C15.981 29.8758 16.7659 30.4665 17.8876 30.4665H18.4941V34.6917H20.1695V30.4665H38.8912H39.2003H62.8921V34.6917H64.5675V30.4665H65.7738C66.8946 30.4665 66.2429 29.8758 66.2429 29.8758V16.3357Z" fill="#FFA300"/>
  <path d="M24.3579 20.3258H57.8659V11.812V11.818V8.32542C57.8659 5.93143 56.7869 5.96016 56.7869 5.96016H39.2003H38.8912H26.8744C26.8744 5.96016 24.3579 5.93143 24.3579 8.32542V12.7103V20.3258Z" fill="#FFA300"/>
  <path d="M101.075 19.725C102.642 20.175 103.75 20.6917 104.4 21.275C105.05 21.8417 105.375 22.6 105.375 23.55C105.375 24.2667 105.167 24.9083 104.75 25.475C104.333 26.025 103.742 26.4583 102.975 26.775C102.225 27.0917 101.358 27.25 100.375 27.25C98.825 27.25 97.5833 26.9583 96.65 26.375C95.7333 25.775 95.275 25 95.275 24.05C95.275 23.5667 95.4083 23.1833 95.675 22.9C95.9417 22.6167 96.3 22.475 96.75 22.475C97.1333 22.475 97.45 22.6083 97.7 22.875C97.9667 23.1417 98.1 23.4667 98.1 23.85C98.1 24.2 97.9917 24.4833 97.775 24.7C98.175 25.2667 99.0333 25.55 100.35 25.55C101.25 25.55 101.933 25.3917 102.4 25.075C102.883 24.7583 103.125 24.3333 103.125 23.8C103.125 23.45 103.05 23.1667 102.9 22.95C102.75 22.7167 102.483 22.5167 102.1 22.35C101.733 22.1667 101.167 21.9667 100.4 21.75C99.15 21.4 98.175 21.05 97.475 20.7C96.7917 20.3333 96.3 19.9333 96 19.5C95.7 19.05 95.55 18.4917 95.55 17.825C95.55 17.125 95.7583 16.5083 96.175 15.975C96.5917 15.425 97.1667 15 97.9 14.7C98.65 14.4 99.5 14.25 100.45 14.25C101.933 14.25 103.092 14.5167 103.925 15.05C104.758 15.5667 105.175 16.2917 105.175 17.225C105.175 17.7083 105.042 18.1 104.775 18.4C104.508 18.6833 104.158 18.825 103.725 18.825C103.325 18.825 102.992 18.6917 102.725 18.425C102.475 18.1583 102.35 17.825 102.35 17.425C102.35 17.075 102.458 16.7917 102.675 16.575C102.308 16.1583 101.558 15.95 100.425 15.95C99.6417 15.95 99.0083 16.1167 98.525 16.45C98.0417 16.7833 97.8 17.2167 97.8 17.75C97.8 18.0333 97.8917 18.275 98.075 18.475C98.2583 18.675 98.575 18.8667 99.025 19.05C99.4917 19.2333 100.175 19.4583 101.075 19.725ZM113.945 27.25C112.761 27.25 111.72 26.9917 110.82 26.475C109.92 25.9417 109.228 25.1917 108.745 24.225C108.261 23.2583 108.02 22.1417 108.02 20.875C108.02 19.5583 108.27 18.4 108.77 17.4C109.27 16.4 109.97 15.625 110.87 15.075C111.77 14.525 112.82 14.25 114.02 14.25C115.203 14.25 116.245 14.5167 117.145 15.05C118.045 15.5667 118.736 16.3083 119.22 17.275C119.703 18.2417 119.945 19.3583 119.945 20.625C119.945 21.9417 119.695 23.1 119.195 24.1C118.695 25.1 117.995 25.875 117.095 26.425C116.195 26.975 115.145 27.25 113.945 27.25ZM113.945 25.3C115.128 25.3 116.045 24.8917 116.695 24.075C117.345 23.2583 117.67 22.1167 117.67 20.65C117.67 19.2167 117.353 18.1167 116.72 17.35C116.086 16.5833 115.186 16.2 114.02 16.2C112.853 16.2 111.936 16.6167 111.27 17.45C110.62 18.2667 110.295 19.4 110.295 20.85C110.295 22.2667 110.611 23.3667 111.245 24.15C111.878 24.9167 112.778 25.3 113.945 25.3ZM130.521 12.25C130.138 12.25 129.813 12.1167 129.546 11.85C129.296 11.5833 129.171 11.2583 129.171 10.875C129.171 10.6417 129.221 10.4417 129.321 10.275C129.138 10.225 128.929 10.2 128.696 10.2C128.029 10.2 127.529 10.4083 127.196 10.825C126.879 11.2417 126.721 11.8833 126.721 12.75V14.5H129.796C130.413 14.5 130.721 14.775 130.721 15.325V15.6C130.721 15.8667 130.646 16.075 130.496 16.225C130.346 16.375 130.113 16.45 129.796 16.45H126.721V25.025H127.921C128.454 25.025 128.721 25.25 128.721 25.7V26.325C128.721 26.775 128.454 27 127.921 27H123.846C123.296 27 123.021 26.775 123.021 26.325V25.7C123.021 25.25 123.296 25.025 123.846 25.025H124.496V16.45H122.921C122.621 16.45 122.388 16.375 122.221 16.225C122.071 16.075 121.996 15.8667 121.996 15.6V15.325C121.996 15.075 122.071 14.875 122.221 14.725C122.388 14.575 122.621 14.5 122.921 14.5H124.496V12.55C124.496 11.2333 124.871 10.1917 125.621 9.425C126.388 8.64167 127.404 8.25 128.671 8.25C129.638 8.25 130.429 8.48333 131.046 8.95C131.679 9.4 131.996 9.975 131.996 10.675C131.996 11.1583 131.863 11.5417 131.596 11.825C131.329 12.1083 130.971 12.25 130.521 12.25ZM143.454 25.025C143.987 25.025 144.254 25.25 144.254 25.7V26.325C144.254 26.775 143.987 27 143.454 27H141.454C141.204 27 140.987 26.9167 140.804 26.75C140.637 26.5667 140.554 26.3417 140.554 26.075V24.5C140.237 25.2833 139.687 25.9417 138.904 26.475C138.137 26.9917 137.321 27.25 136.454 27.25C135.287 27.25 134.346 26.9167 133.629 26.25C132.912 25.5667 132.554 24.6667 132.554 23.55C132.554 22.3833 132.946 21.4833 133.729 20.85C134.529 20.2167 135.662 19.9 137.129 19.9C138.246 19.9 139.387 20.0333 140.554 20.3V19.175C140.554 18.1417 140.312 17.375 139.829 16.875C139.346 16.375 138.596 16.125 137.579 16.125C136.796 16.125 136.212 16.275 135.829 16.575C135.946 16.775 136.004 16.9917 136.004 17.225C136.004 17.6083 135.871 17.9333 135.604 18.2C135.337 18.4667 135.012 18.6 134.629 18.6C134.179 18.6 133.821 18.4583 133.554 18.175C133.287 17.8917 133.154 17.5083 133.154 17.025C133.154 16.2083 133.579 15.5417 134.429 15.025C135.279 14.5083 136.362 14.25 137.679 14.25C139.329 14.25 140.587 14.6917 141.454 15.575C142.337 16.4583 142.779 17.7083 142.779 19.325V25.025H143.454ZM136.979 25.425C137.612 25.425 138.196 25.2583 138.729 24.925C139.279 24.575 139.712 24.1167 140.029 23.55C140.362 22.9667 140.537 22.3333 140.554 21.65C139.804 21.5333 138.771 21.475 137.454 21.475C135.654 21.475 134.754 22.1417 134.754 23.475C134.754 24.0917 134.954 24.575 135.354 24.925C135.754 25.2583 136.296 25.425 136.979 25.425Z" fill="white"/>
  <path d="M165.26 25.025C165.81 25.025 166.085 25.25 166.085 25.7V26.325C166.085 26.775 165.81 27 165.26 27H163.31C163.043 27 162.818 26.9167 162.635 26.75C162.468 26.5667 162.385 26.3417 162.385 26.075V24.5C162.085 25.2833 161.543 25.9417 160.76 26.475C159.993 26.9917 159.176 27.25 158.31 27.25C157.31 27.25 156.426 26.9917 155.66 26.475C154.91 25.9583 154.326 25.225 153.91 24.275C153.51 23.3083 153.31 22.1833 153.31 20.9C153.31 18.8333 153.793 17.2083 154.76 16.025C155.743 14.8417 157.085 14.25 158.785 14.25C159.485 14.25 160.151 14.4167 160.785 14.75C161.418 15.0833 161.951 15.55 162.385 16.15V10.475H161.735C161.185 10.475 160.91 10.25 160.91 9.8V9.175C160.91 8.725 161.185 8.5 161.735 8.5H163.735C163.985 8.5 164.193 8.59167 164.36 8.775C164.526 8.94167 164.61 9.15833 164.61 9.425V25.025H165.26ZM158.81 25.3C159.46 25.3 160.06 25.125 160.61 24.775C161.16 24.4083 161.593 23.9167 161.91 23.3C162.226 22.6833 162.385 22.0083 162.385 21.275V18.025C161.918 17.4417 161.393 16.9917 160.81 16.675C160.243 16.3583 159.643 16.2 159.01 16.2C157.893 16.2 157.043 16.6167 156.46 17.45C155.876 18.2667 155.585 19.4583 155.585 21.025C155.585 22.375 155.868 23.425 156.435 24.175C157.001 24.925 157.793 25.3 158.81 25.3ZM179.123 25.025C179.656 25.025 179.923 25.25 179.923 25.7V26.325C179.923 26.775 179.656 27 179.123 27H177.123C176.873 27 176.656 26.9167 176.473 26.75C176.306 26.5667 176.223 26.3417 176.223 26.075V24.5C175.906 25.2833 175.356 25.9417 174.573 26.475C173.806 26.9917 172.99 27.25 172.123 27.25C170.956 27.25 170.015 26.9167 169.298 26.25C168.581 25.5667 168.223 24.6667 168.223 23.55C168.223 22.3833 168.615 21.4833 169.398 20.85C170.198 20.2167 171.331 19.9 172.798 19.9C173.915 19.9 175.056 20.0333 176.223 20.3V19.175C176.223 18.1417 175.981 17.375 175.498 16.875C175.015 16.375 174.265 16.125 173.248 16.125C172.465 16.125 171.881 16.275 171.498 16.575C171.615 16.775 171.673 16.9917 171.673 17.225C171.673 17.6083 171.54 17.9333 171.273 18.2C171.006 18.4667 170.681 18.6 170.298 18.6C169.848 18.6 169.49 18.4583 169.223 18.175C168.956 17.8917 168.823 17.5083 168.823 17.025C168.823 16.2083 169.248 15.5417 170.098 15.025C170.948 14.5083 172.031 14.25 173.348 14.25C174.998 14.25 176.256 14.6917 177.123 15.575C178.006 16.4583 178.448 17.7083 178.448 19.325V25.025H179.123ZM172.648 25.425C173.281 25.425 173.865 25.2583 174.398 24.925C174.948 24.575 175.381 24.1167 175.698 23.55C176.031 22.9667 176.206 22.3333 176.223 21.65C175.473 21.5333 174.44 21.475 173.123 21.475C171.323 21.475 170.423 22.1417 170.423 23.475C170.423 24.0917 170.623 24.575 171.023 24.925C171.423 25.2583 171.965 25.425 172.648 25.425ZM190.574 22.9C190.841 22.9 191.074 22.9833 191.274 23.15C191.474 23.3 191.574 23.4917 191.574 23.725C191.574 23.9917 191.491 24.2917 191.324 24.625C190.941 25.3917 190.482 26.025 189.949 26.525C189.416 27.0083 188.682 27.25 187.749 27.25C186.382 27.25 185.341 26.8417 184.624 26.025C183.924 25.2083 183.574 24.0167 183.574 22.45V16.45H182.024C181.724 16.45 181.491 16.375 181.324 16.225C181.174 16.075 181.099 15.8667 181.099 15.6V15.325C181.099 15.0583 181.174 14.8583 181.324 14.725C181.491 14.575 181.724 14.5 182.024 14.5H183.574V12.2C183.574 11.9 183.649 11.675 183.799 11.525C183.966 11.3583 184.191 11.275 184.474 11.275H184.949C185.232 11.275 185.449 11.3583 185.599 11.525C185.749 11.675 185.824 11.9 185.824 12.2V14.5H189.074C189.374 14.5 189.599 14.575 189.749 14.725C189.916 14.8583 189.999 15.0583 189.999 15.325V15.6C189.999 15.8667 189.916 16.075 189.749 16.225C189.599 16.375 189.374 16.45 189.074 16.45H185.824V22.4C185.824 24.3333 186.491 25.3 187.824 25.3C188.341 25.3 188.724 25.1667 188.974 24.9C189.241 24.6167 189.516 24.15 189.799 23.5C189.916 23.2833 190.024 23.1333 190.124 23.05C190.241 22.95 190.391 22.9 190.574 22.9ZM204.465 25.025C204.998 25.025 205.265 25.25 205.265 25.7V26.325C205.265 26.775 204.998 27 204.465 27H202.465C202.215 27 201.998 26.9167 201.815 26.75C201.648 26.5667 201.565 26.3417 201.565 26.075V24.5C201.248 25.2833 200.698 25.9417 199.915 26.475C199.148 26.9917 198.332 27.25 197.465 27.25C196.298 27.25 195.357 26.9167 194.64 26.25C193.923 25.5667 193.565 24.6667 193.565 23.55C193.565 22.3833 193.957 21.4833 194.74 20.85C195.54 20.2167 196.673 19.9 198.14 19.9C199.257 19.9 200.398 20.0333 201.565 20.3V19.175C201.565 18.1417 201.323 17.375 200.84 16.875C200.357 16.375 199.607 16.125 198.59 16.125C197.807 16.125 197.223 16.275 196.84 16.575C196.957 16.775 197.015 16.9917 197.015 17.225C197.015 17.6083 196.882 17.9333 196.615 18.2C196.348 18.4667 196.023 18.6 195.64 18.6C195.19 18.6 194.832 18.4583 194.565 18.175C194.298 17.8917 194.165 17.5083 194.165 17.025C194.165 16.2083 194.59 15.5417 195.44 15.025C196.29 14.5083 197.373 14.25 198.69 14.25C200.34 14.25 201.598 14.6917 202.465 15.575C203.348 16.4583 203.79 17.7083 203.79 19.325V25.025H204.465ZM197.99 25.425C198.623 25.425 199.207 25.2583 199.74 24.925C200.29 24.575 200.723 24.1167 201.04 23.55C201.373 22.9667 201.548 22.3333 201.565 21.65C200.815 21.5333 199.782 21.475 198.465 21.475C196.665 21.475 195.765 22.1417 195.765 23.475C195.765 24.0917 195.965 24.575 196.365 24.925C196.765 25.2583 197.307 25.425 197.99 25.425ZM220.02 19.725C221.587 20.175 222.695 20.6917 223.345 21.275C223.995 21.8417 224.32 22.6 224.32 23.55C224.32 24.2667 224.112 24.9083 223.695 25.475C223.279 26.025 222.687 26.4583 221.92 26.775C221.17 27.0917 220.304 27.25 219.32 27.25C217.77 27.25 216.529 26.9583 215.595 26.375C214.679 25.775 214.22 25 214.22 24.05C214.22 23.5667 214.354 23.1833 214.62 22.9C214.887 22.6167 215.245 22.475 215.695 22.475C216.079 22.475 216.395 22.6083 216.645 22.875C216.912 23.1417 217.045 23.4667 217.045 23.85C217.045 24.2 216.937 24.4833 216.72 24.7C217.12 25.2667 217.979 25.55 219.295 25.55C220.195 25.55 220.879 25.3917 221.345 25.075C221.829 24.7583 222.07 24.3333 222.07 23.8C222.07 23.45 221.995 23.1667 221.845 22.95C221.695 22.7167 221.429 22.5167 221.045 22.35C220.679 22.1667 220.112 21.9667 219.345 21.75C218.095 21.4 217.12 21.05 216.42 20.7C215.737 20.3333 215.245 19.9333 214.945 19.5C214.645 19.05 214.495 18.4917 214.495 17.825C214.495 17.125 214.704 16.5083 215.12 15.975C215.537 15.425 216.112 15 216.845 14.7C217.595 14.4 218.445 14.25 219.395 14.25C220.879 14.25 222.037 14.5167 222.87 15.05C223.704 15.5667 224.12 16.2917 224.12 17.225C224.12 17.7083 223.987 18.1 223.72 18.4C223.454 18.6833 223.104 18.825 222.67 18.825C222.27 18.825 221.937 18.6917 221.67 18.425C221.42 18.1583 221.295 17.825 221.295 17.425C221.295 17.075 221.404 16.7917 221.62 16.575C221.254 16.1583 220.504 15.95 219.37 15.95C218.587 15.95 217.954 16.1167 217.47 16.45C216.987 16.7833 216.745 17.2167 216.745 17.75C216.745 18.0333 216.837 18.275 217.02 18.475C217.204 18.675 217.52 18.8667 217.97 19.05C218.437 19.2333 219.12 19.4583 220.02 19.725ZM235.74 22.9C236.007 22.9 236.24 22.9833 236.44 23.15C236.64 23.3 236.74 23.4917 236.74 23.725C236.74 23.9917 236.657 24.2917 236.49 24.625C236.107 25.3917 235.648 26.025 235.115 26.525C234.582 27.0083 233.848 27.25 232.915 27.25C231.548 27.25 230.507 26.8417 229.79 26.025C229.09 25.2083 228.74 24.0167 228.74 22.45V16.45H227.19C226.89 16.45 226.657 16.375 226.49 16.225C226.34 16.075 226.265 15.8667 226.265 15.6V15.325C226.265 15.0583 226.34 14.8583 226.49 14.725C226.657 14.575 226.89 14.5 227.19 14.5H228.74V12.2C228.74 11.9 228.815 11.675 228.965 11.525C229.132 11.3583 229.357 11.275 229.64 11.275H230.115C230.398 11.275 230.615 11.3583 230.765 11.525C230.915 11.675 230.99 11.9 230.99 12.2V14.5H234.24C234.54 14.5 234.765 14.575 234.915 14.725C235.082 14.8583 235.165 15.0583 235.165 15.325V15.6C235.165 15.8667 235.082 16.075 234.915 16.225C234.765 16.375 234.54 16.45 234.24 16.45H230.99V22.4C230.99 24.3333 231.657 25.3 232.99 25.3C233.507 25.3 233.89 25.1667 234.14 24.9C234.407 24.6167 234.682 24.15 234.965 23.5C235.082 23.2833 235.19 23.1333 235.29 23.05C235.407 22.95 235.557 22.9 235.74 22.9ZM250.806 25.025C251.339 25.025 251.606 25.25 251.606 25.7V26.325C251.606 26.775 251.339 27 250.806 27H248.831C248.564 27 248.339 26.9167 248.156 26.75C247.989 26.5667 247.906 26.3417 247.906 26.075V24.2C247.539 25.0833 246.973 25.8167 246.206 26.4C245.456 26.9667 244.656 27.25 243.806 27.25C242.439 27.25 241.423 26.7917 240.756 25.875C240.106 24.9583 239.781 23.55 239.781 21.65V16.475H239.131C238.598 16.475 238.331 16.25 238.331 15.8V15.175C238.331 14.725 238.598 14.5 239.131 14.5H241.156C241.389 14.5 241.589 14.5917 241.756 14.775C241.939 14.9417 242.031 15.1583 242.031 15.425V21.3C242.031 22.3167 242.098 23.1083 242.231 23.675C242.381 24.2417 242.623 24.6583 242.956 24.925C243.306 25.175 243.773 25.3 244.356 25.3C244.956 25.3 245.531 25.1 246.081 24.7C246.631 24.3 247.073 23.775 247.406 23.125C247.739 22.4583 247.906 21.7667 247.906 21.05V16.475H247.256C246.706 16.475 246.431 16.25 246.431 15.8V15.175C246.431 14.725 246.706 14.5 247.256 14.5H249.256C249.523 14.5 249.739 14.5917 249.906 14.775C250.073 14.9417 250.156 15.1583 250.156 15.425V25.025H250.806ZM265.821 25.025C266.371 25.025 266.646 25.25 266.646 25.7V26.325C266.646 26.775 266.371 27 265.821 27H263.871C263.604 27 263.379 26.9167 263.196 26.75C263.029 26.5667 262.946 26.3417 262.946 26.075V24.5C262.646 25.2833 262.104 25.9417 261.321 26.475C260.554 26.9917 259.738 27.25 258.871 27.25C257.871 27.25 256.988 26.9917 256.221 26.475C255.471 25.9583 254.888 25.225 254.471 24.275C254.071 23.3083 253.871 22.1833 253.871 20.9C253.871 18.8333 254.354 17.2083 255.321 16.025C256.304 14.8417 257.646 14.25 259.346 14.25C260.046 14.25 260.713 14.4167 261.346 14.75C261.979 15.0833 262.513 15.55 262.946 16.15V10.475H262.296C261.746 10.475 261.471 10.25 261.471 9.8V9.175C261.471 8.725 261.746 8.5 262.296 8.5H264.296C264.546 8.5 264.754 8.59167 264.921 8.775C265.088 8.94167 265.171 9.15833 265.171 9.425V25.025H265.821ZM259.371 25.3C260.021 25.3 260.621 25.125 261.171 24.775C261.721 24.4083 262.154 23.9167 262.471 23.3C262.788 22.6833 262.946 22.0083 262.946 21.275V18.025C262.479 17.4417 261.954 16.9917 261.371 16.675C260.804 16.3583 260.204 16.2 259.571 16.2C258.454 16.2 257.604 16.6167 257.021 17.45C256.438 18.2667 256.146 19.4583 256.146 21.025C256.146 22.375 256.429 23.425 256.996 24.175C257.563 24.925 258.354 25.3 259.371 25.3ZM270.935 12.075C270.468 12.075 270.076 11.9167 269.76 11.6C269.443 11.2833 269.285 10.8917 269.285 10.425C269.285 9.95833 269.443 9.575 269.76 9.275C270.076 8.95833 270.468 8.8 270.935 8.8C271.401 8.8 271.785 8.95833 272.085 9.275C272.401 9.575 272.56 9.95833 272.56 10.425C272.56 10.8917 272.401 11.2833 272.085 11.6C271.785 11.9167 271.401 12.075 270.935 12.075ZM269.56 27C269.026 27 268.76 26.775 268.76 26.325V25.7C268.76 25.25 269.026 25.025 269.56 25.025H270.21V16.475H269.56C269.026 16.475 268.76 16.25 268.76 15.8V15.175C268.76 14.725 269.026 14.5 269.56 14.5H271.535C271.801 14.5 272.018 14.5917 272.185 14.775C272.368 14.9417 272.46 15.1583 272.46 15.425V25.025H273.11C273.66 25.025 273.935 25.25 273.935 25.7V26.325C273.935 26.775 273.66 27 273.11 27H269.56ZM282.06 27.25C280.877 27.25 279.835 26.9917 278.935 26.475C278.035 25.9417 277.343 25.1917 276.86 24.225C276.377 23.2583 276.135 22.1417 276.135 20.875C276.135 19.5583 276.385 18.4 276.885 17.4C277.385 16.4 278.085 15.625 278.985 15.075C279.885 14.525 280.935 14.25 282.135 14.25C283.318 14.25 284.36 14.5167 285.26 15.05C286.16 15.5667 286.852 16.3083 287.335 17.275C287.818 18.2417 288.06 19.3583 288.06 20.625C288.06 21.9417 287.81 23.1 287.31 24.1C286.81 25.1 286.11 25.875 285.21 26.425C284.31 26.975 283.26 27.25 282.06 27.25ZM282.06 25.3C283.243 25.3 284.16 24.8917 284.81 24.075C285.46 23.2583 285.785 22.1167 285.785 20.65C285.785 19.2167 285.468 18.1167 284.835 17.35C284.202 16.5833 283.302 16.2 282.135 16.2C280.968 16.2 280.052 16.6167 279.385 17.45C278.735 18.2667 278.41 19.4 278.41 20.85C278.41 22.2667 278.727 23.3667 279.36 24.15C279.993 24.9167 280.893 25.3 282.06 25.3Z" fill="#FFA300"/>
</svg>