<svg width="21" height="21" viewBox="0 0 21 21" fill="none" xmlns="http://www.w3.org/2000/svg">
<rect y="0.261963" width="5.25" height="5.13196" rx="2" fill="#C5C5C5" fill-opacity="0.4"/>
<rect y="7.95996" width="5.25" height="5.13197" rx="2" fill="#C5C5C5" fill-opacity="0.4"/>
<rect y="15.6578" width="5.25" height="5.13196" rx="2" fill="#C5C5C5" fill-opacity="0.4"/>
<rect x="7.875" y="15.6578" width="5.25" height="5.13196" rx="2" fill="#C5C5C5" fill-opacity="0.4"/>
<rect width="5.25" height="5.13197" rx="2" transform="matrix(1 0 0 -1 7.875 13.0919)" fill="#C5C5C5" fill-opacity="0.4"/>
<rect x="7.875" y="0.261963" width="5.25" height="5.13196" rx="2" fill="#C5C5C5" fill-opacity="0.4"/>
<rect width="5.25" height="5.13196" rx="2" transform="matrix(1 0 0 -1 15.75 5.39392)" fill="#C5C5C5" fill-opacity="0.4"/>
<rect width="5.25" height="5.13197" rx="2" transform="matrix(1 0 0 -1 15.75 13.0919)" fill="#C5C5C5" fill-opacity="0.4"/>
<rect width="5.25" height="5.13196" rx="2" transform="matrix(1 0 0 -1 15.75 20.7898)" fill="#C5C5C5" fill-opacity="0.4"/>
</svg>
